<svg height="40" version="1.1" viewBox="8 8 24 24" width="40" xmlns="http://www.w3.org/2000/svg">
<g fill="none" fill-rule="evenodd" stroke="none" stroke-width="40">

<g fill="#000" fill-rule="nonzero" transform="translate(10 10)">
<path d="M15.5198973,-2.20552465e-11 C17.1788785,-2.20552465e-11 18.5237484,1.34486994 18.5237484,3.00385109 L18.5231657,4.15060411 C18.647582,4.05915681 18.8012126,4.00513479 18.9674607,4.00513479 C19.382206,4.00513479 19.7184235,4.34135227 19.7184235,4.75609756 L19.7184235,7.2593068 C19.7184235,7.67405209 19.382206,8.01026958 18.9674607,8.01026958 C18.8012126,8.01026958 18.647582,7.95624756 18.5231657,7.86480026 L18.522486,8.853 L2.00356739,8.85367809 L2.00441989,7.81965065 C1.87164094,7.9382065 1.69646047,8.01026958 1.50444876,8.01026958 C1.08970348,8.01026958 0.753485991,7.67405209 0.753485991,7.2593068 L0.753485991,4.75609756 C0.753485991,4.34135227 1.08970348,4.00513479 1.50444876,4.00513479 C1.69646047,4.00513479 1.87164094,4.07719786 2.00441989,4.19575372 L2.00256739,3.00385109 C2.00256739,1.34486994 3.34743734,-2.20552465e-11 5.00641849,-2.20552465e-11 L15.5198973,-2.20552465e-11 Z M15.4387614,1.50847243 L5.05659699,1.50847243 C4.18456843,1.50847243 3.47764962,2.21539124 3.47764962,3.0874198 L3.47764962,3.0874198 L3.47764962,8.85212851 L17.0177088,8.85212851 L17.0177088,3.0874198 C17.0177088,2.21539124 16.31079,1.50847243 15.4387614,1.50847243 L15.4387614,1.50847243 Z"></path>
<path d="M18.5225674,8.85288862 L18.5237484,15.0192555 C18.5237484,16.312486 17.7065091,17.41484 16.5603009,17.838047 L16.5596919,19.2747112 C16.5596919,19.551208 16.3355469,19.775353 16.0590501,19.775353 L14.7689345,19.775353 C14.4924377,19.775353 14.2682927,19.551208 14.2682927,19.2747112 L14.267486,18.023 L6.25748599,18.023 L6.25802311,19.2747112 C6.25802311,19.551208 6.03387812,19.775353 5.75738126,19.775353 L4.46726572,19.775353 C4.19076887,19.775353 3.96662388,19.551208 3.96662388,19.2747112 L3.96702485,17.8384197 C2.82028682,17.4154875 2.00256739,16.3128658 2.00256739,15.0192555 L2.00356739,8.85288862 L18.5225674,8.85288862 Z M5.41773585,11.3246074 C4.58824528,11.3246074 3.91581031,11.9970424 3.91581031,12.826533 C3.91581031,13.6560235 4.58824528,14.3284585 5.41773585,14.3284585 C6.24722643,14.3284585 6.9196614,13.6560235 6.9196614,12.826533 C6.9196614,11.9970424 6.24722643,11.3246074 5.41773585,11.3246074 Z M15.0541737,11.3246074 C14.2246831,11.3246074 13.5522481,11.9970424 13.5522481,12.826533 C13.5522481,13.6560235 14.2246831,14.3284585 15.0541737,14.3284585 C15.8836642,14.3284585 16.5560992,13.6560235 16.5560992,12.826533 C16.5560992,11.9970424 15.8836642,11.3246074 15.0541737,11.3246074 Z"></path>
<path d="M5.05659699,1.50847243 L15.4387614,1.50847243 C16.31079,1.50847243 17.0177088,2.21539124 17.0177088,3.0874198 L17.0177088,8.85212851 L17.0177088,8.85212851 L3.47764962,8.85212851 L3.47764962,3.0874198 C3.47764962,2.21539124 4.18456843,1.50847243 5.05659699,1.50847243 Z" fill-opacity=".6"></path>
</g>
</g>
</svg>
